<?xml version="1.0" encoding="UTF-8"?>
<svg id="Calque_1" xmlns="http://www.w3.org/2000/svg" version="1.1" viewBox="0 0 841.89 595.28">
  <!-- Generator: Adobe Illustrator 29.1.0, SVG Export Plug-In . SVG Version: 2.1.0 Build 142)  -->
  <defs>
    <style>
      .st0 {
        fill: #fdefcc;
      }

      .st1 {
        fill: #fff;
        stroke: #221f20;
        stroke-miterlimit: 10;
        stroke-width: 10.59px;
      }
    </style>
  </defs>
  <g>
    <g id="_x36_sOS7m">
      <path class="st1" d="M501.88,243.48c17.78-16.16,38.99-37.08,62-36.31,12.03,6.48-10.42,34.73-13.68,45.26-6.86,13.92-.15,24.15,13.17,16.64,2.6-1.34,4.51-3.17,6.71-3.5,2.04-.35,3.57,2.2,4.23,1.43,1.04-1.5,1.24-5.74,1.57-7.9,4.23-28.3,27.18-49.54,49.98-60.28,10.06-4.15,22.92-9.61,32-3.1,8.74,5.71,6.9,20.58.23,29.43-8.71,13.42-23.85,19.86-37.21,24.6-4.48,2.27-12.07,3.04-15.85,5.71,7.88.09,15.48,4.05,22.81,5.38,12.24-.15,26.5-2.87,36.5-12.17,7.92-9.2,19.06-22.46,18.69-35.09-2.17-5.58-8.89-7.94-8.31-15.41.65-12.89,11.31-30.95,24.07-26.44,14.63,4.06,2.31,18.79,6.2,21.83,5.44.32,11.42,1.16,16.94,1.9,47.61-2.56-6.88,20.67,6.54,42.93,4.48,4.22,13.31,1.25,18.27-1.77,8.62-5.3,12.92-15.96,20.04-22.87,9.75.7-4.39,23.67-7.01,29.08-10.68,20.48-31.03,40.69-52.11,36.4-27.25-4.36-17.27-38.67-2.59-57.12,2.34-3.54,7.1-5.43,10.2-6.73,3.04-1.32-.94-1.34-1.97-1.43-6.9.53-16.68-2.38-20.61,6.48-11.69,26.54-23.67,55.57-49.5,68.5-19.34,9.48-46.25,14.56-61.02-1.73-2.08-2.92-3.54-6.49-6.45-5.36-9.29,9.45-18.5,21.34-31,25.64-19.64,8.57-40.73.59-33.22-26.19,3.16-10.08,7.72-19.01,13.64-27.48,2.17-4.5,18.99-23.03,6.52-20.45-12.51,6.47-23.88,17.94-32.43,30.17-5.27,11.1-7.53,23.74-11.33,35.32-6.74,23.31-12.4,47.31-14,71.23-1.52,7.2-10.18,6.92-14.87,6.39-11.5-2.13-16.03-15.58-14.92-28.17,1.56-13.16,2.92-28.34,12.78-38.12.79-1.11,2.81-2.96,2.6-4.21-10.71,8.49-20.44,20.17-34.08,22.17-19.49,6.75-33.78-8.31-26.42-30.32,4.22-10.89,10.01-21.68,17.03-30.72,3.31-3.64,13.29-18.35,2.73-14.93-11.5,5.28-20.99,15.92-29.49,25.71-9.72,15.1-11.74,34.33-16.99,51.33-4.2,14.11-7.32,29.03-9.55,43.7-1.41,5.97.76,14.97-3.63,19.86-13.87,8.71-28.41-4.37-28.14-20.24.99-16.12,3.09-35.08,15.3-46.67.61-.79,1.75-1.98,2.19-2.66.32-.45.31-.63-.02-.52-1.3.68-3.38,2.66-4.71,3.82-11.05,10.16-23.19,18.85-37.21,22.07-17.11,3.94-38.88,4.38-47.44-13.36-13.04-30.58,12.83-65.55,39.12-79.56,14.34-8.31,41.28-19.31,45.85,3.29-.24,30.18-34.04,42.05-55.41,48.4-6.49,2.3,2.08,2.55,4.16,2.96,4.84.48,8.31,4.06,13.06,4.02,56.05-1.03,47.63-41.7,80.15-76.11,11.17-7.82,16.69-3.1,10.34,10.35-1.97,6.24-7.98,10.91-9.81,16.16,14.44-14.21,47.08-44.11,65.89-38.04,9.93,13.48-21.92,42.14-17.03,58.74,7.28,14.74,28.98-6.99,34.19-17.87,7.12-13.05,25.79-60.14,41.83-49.86,1.49,3.73-1.94,11.23-4.03,15.59-1.73,4.29-19.05,22.99-5.69,10.38l.2-.18ZM317.46,260.32c-12.26-1.86-21.22,12.04-24.38,24.42-2.04,6.43-1.13,12.1,5.97,8.76,10.15-4.73,23.22-13.09,22-26.9-.35-2.65-.84-5.68-3.35-6.23l-.25-.06ZM636.77,207.39c-12.47-2.11-21.44,12.48-24.73,24.75-2.5,8.56.22,11.56,7.75,7.82,6.78-3.5,14.98-8.1,19-15.29,3.46-5.52,4.25-14.84-1.77-17.21l-.25-.07Z"/>
      <path class="st1" d="M186.7,190.29"/>
    </g>
    <g>
      <path class="st1" d="M173.28,293.05c5-21.61,16.12-42.96,26.42-61.91,5.59-9.91-7.51-7.81-11.34-2.74-8.76,9.92-14.41,23.12-20.66,34.78-9.16,14.67-15.82,30.68-22.62,46.84-12.11,33.38-52.4,108.06-8.89,122.25,11.28,4.24,10.66-12.36,11.72-20.56.96-7.9,2.72-15.53,4.17-23.46,6.43-31.74,14.29-63.26,21.13-94.9l.07-.31Z"/>
      <path class="st1" d="M267.89,206.49c-4.84-17.57-19.85-26.32-35.48-30.42-47.67-12.53-118.36,40.43-102.31,71.28,8.71,16.74,21.22,10.19,30.71-17.24,3.78-10.92,9.87-22.4,24.17-32.31,18.19-12.62,41.22-10.09,52.06-3.04,26,21.47-2.47,66.45-28.3,77.99-5.82,2.58-14.18,4.04-20.1,3.83-3.05-.27-6.34-.12-7.59,3.47-2.82,8.34-2.57,18.43-1.66,27.75,1.21,9.5,11.02,9.95,18.53,8.97,40.85-6.11,79.69-66.43,70.04-109.99l-.06-.27Z"/>
    </g>
  </g>
  <g>
    <g id="_x36_sOS7m1" data-name="_x36_sOS7m">
      <path class="st0" d="M499.14,240.48c17.78-16.16,38.99-37.08,62-36.31,12.03,6.48-10.42,34.73-13.68,45.26-6.86,13.92-.15,24.15,13.17,16.64,2.6-1.34,4.51-3.17,6.71-3.5,2.04-.35,3.57,2.2,4.23,1.43,1.04-1.5,1.24-5.74,1.57-7.9,4.23-28.3,27.18-49.54,49.98-60.28,10.06-4.15,22.92-9.61,32-3.1,8.74,5.71,6.9,20.58.23,29.43-8.71,13.42-23.85,19.86-37.21,24.6-4.48,2.27-12.07,3.04-15.85,5.71,7.88.09,15.48,4.05,22.81,5.38,12.24-.15,26.5-2.87,36.5-12.17,7.92-9.2,19.06-22.46,18.69-35.09-2.17-5.58-8.89-7.94-8.31-15.41.65-12.89,11.31-30.95,24.07-26.44,14.63,4.06,2.31,18.79,6.2,21.83,5.44.32,11.42,1.16,16.94,1.9,47.61-2.56-6.88,20.67,6.54,42.93,4.48,4.22,13.31,1.25,18.27-1.77,8.62-5.3,12.92-15.96,20.04-22.87,9.75.7-4.39,23.67-7.01,29.08-10.68,20.48-31.03,40.69-52.11,36.4-27.25-4.36-17.27-38.67-2.59-57.12,2.34-3.54,7.1-5.43,10.2-6.73,3.04-1.32-.94-1.34-1.97-1.43-6.9.53-16.68-2.38-20.61,6.48-11.69,26.54-23.67,55.57-49.5,68.5-19.34,9.48-46.25,14.56-61.02-1.73-2.08-2.92-3.54-6.49-6.45-5.36-9.29,9.45-18.5,21.34-31,25.64-19.64,8.57-40.73.59-33.22-26.19,3.16-10.08,7.72-19.01,13.64-27.48,2.17-4.5,18.99-23.03,6.52-20.45-12.51,6.47-23.88,17.94-32.43,30.17-5.27,11.1-7.53,23.74-11.33,35.32-6.74,23.31-12.4,47.31-14,71.23-1.52,7.2-10.18,6.92-14.87,6.39-11.5-2.13-16.03-15.58-14.92-28.17,1.56-13.16,2.92-28.34,12.78-38.12.79-1.11,2.81-2.96,2.6-4.21-10.71,8.49-20.44,20.17-34.08,22.17-19.49,6.75-33.78-8.31-26.42-30.32,4.22-10.89,10.01-21.68,17.03-30.72,3.31-3.64,13.29-18.35,2.73-14.93-11.5,5.28-20.99,15.92-29.49,25.71-9.72,15.1-11.74,34.33-16.99,51.33-4.2,14.11-7.32,29.03-9.55,43.7-1.41,5.97.76,14.97-3.63,19.86-13.87,8.71-28.41-4.37-28.14-20.24.99-16.12,3.09-35.08,15.3-46.67.61-.79,1.75-1.98,2.19-2.66.32-.45.31-.63-.02-.52-1.3.68-3.38,2.66-4.71,3.82-11.05,10.16-23.19,18.85-37.21,22.07-17.11,3.94-38.88,4.38-47.44-13.36-13.04-30.58,12.83-65.55,39.12-79.56,14.34-8.31,41.28-19.31,45.85,3.29-.24,30.18-34.04,42.05-55.41,48.4-6.49,2.3,2.08,2.55,4.16,2.96,4.84.48,8.31,4.06,13.06,4.02,56.05-1.03,47.63-41.7,80.15-76.11,11.17-7.82,16.69-3.1,10.34,10.35-1.97,6.24-7.98,10.91-9.81,16.16,14.44-14.21,47.08-44.11,65.89-38.04,9.93,13.48-21.92,42.14-17.03,58.74,7.28,14.74,28.98-6.99,34.19-17.87,7.12-13.05,25.79-60.14,41.83-49.86,1.49,3.73-1.94,11.23-4.03,15.59-1.73,4.29-19.05,22.99-5.69,10.38l.2-.18ZM314.72,257.32c-12.26-1.86-21.22,12.04-24.38,24.42-2.04,6.43-1.13,12.1,5.97,8.76,10.15-4.73,23.22-13.09,22-26.9-.35-2.65-.84-5.68-3.35-6.23l-.25-.06ZM634.03,204.39c-12.47-2.11-21.44,12.48-24.73,24.75-2.5,8.56.22,11.56,7.75,7.82,6.78-3.5,14.98-8.1,19-15.29,3.46-5.52,4.25-14.84-1.77-17.21l-.25-.07Z"/>
      <path class="st0" d="M183.96,187.29"/>
    </g>
    <g>
      <path class="st0" d="M170.54,290.06c5-21.61,16.12-42.96,26.42-61.91,5.59-9.91-7.51-7.81-11.34-2.74-8.76,9.92-14.41,23.12-20.66,34.78-9.16,14.67-15.82,30.68-22.62,46.84-12.11,33.38-52.4,108.06-8.89,122.25,11.28,4.24,10.66-12.36,11.72-20.56.96-7.9,2.72-15.53,4.17-23.46,6.43-31.74,14.29-63.26,21.13-94.9l.07-.31Z"/>
      <path class="st0" d="M265.15,203.49c-4.84-17.57-19.85-26.32-35.48-30.42-47.67-12.53-118.36,40.43-102.31,71.28,8.71,16.74,21.22,10.19,30.71-17.24,3.78-10.92,9.87-22.4,24.17-32.31,18.19-12.62,41.22-10.09,52.06-3.04,26,21.47-2.47,66.45-28.3,77.99-5.82,2.58-14.18,4.04-20.1,3.83-3.05-.27-6.34-.12-7.59,3.47-2.82,8.34-2.57,18.43-1.66,27.75,1.21,9.5,11.02,9.95,18.53,8.97,40.85-6.11,79.69-66.43,70.04-109.99l-.06-.27Z"/>
    </g>
  </g>
</svg>